<?xml version="1.0" encoding="UTF-8" standalone="no"?>
<svg
   xmlns:dc="http://purl.org/dc/elements/1.1/"
   xmlns:cc="http://creativecommons.org/ns#"
   xmlns:rdf="http://www.w3.org/1999/02/22-rdf-syntax-ns#"
   xmlns:svg="http://www.w3.org/2000/svg"
   xmlns="http://www.w3.org/2000/svg"
   viewBox="0 0 60.077957 64.730484"
   height="64.730484"
   width="60.077957"
   id="svg2"
   version="1.1">
  <metadata
     id="metadata8">
    <rdf:RDF>
      <cc:Work
         rdf:about="">
        <dc:format>image/svg+xml</dc:format>
        <dc:type
           rdf:resource="http://purl.org/dc/dcmitype/StillImage" />
        <dc:title></dc:title>
      </cc:Work>
    </rdf:RDF>
  </metadata>
  <defs
     id="defs6">
    <clipPath
       id="clipPath4522"
       clipPathUnits="userSpaceOnUse">
      <rect
         y="0"
         x="0"
         height="100.70874"
         width="340.48294"
         id="rect4524"
         style="fill:#ebebeb;fill-opacity:1;stroke-width:1" />
    </clipPath>
  </defs>
  <path
     id="path855"
     d="M 29.773354,1.4999999 1.4999162,63.230469 h 9.2167968 l 6.648438,-14.88086 h 11.517578 v -7.359375 h -8.326172 l 9.128906,-20.439453 8.429688,19.841797 0.002,0.002 0.251953,0.595703 0.794922,1.880859 0.0078,-0.0098 0.576172,1.371094 h -0.0098 l 2.136719,5.052734 0.09961,0.234375 0.04492,0.107422 5.833985,13.603516 H 58.578041 L 30.304604,1.4999999 Z"
     style="font-style:normal;font-variant:normal;font-weight:normal;font-stretch:normal;font-size:14.59449482px;line-height:1.25;font-family:'Reem Kufi';-inkscape-font-specification:'Reem Kufi, Normal';font-variant-ligatures:normal;font-variant-caps:normal;font-variant-numeric:normal;font-feature-settings:normal;text-align:start;letter-spacing:2.10296655px;word-spacing:0px;writing-mode:lr-tb;text-anchor:start;fill:#ff1800;fill-opacity:1;stroke:#ff1800;stroke-width:2.99999976;stroke-linecap:square;stroke-linejoin:round;stroke-miterlimit:4;stroke-dasharray:none;stroke-opacity:1" />
  <path
     id="path853"
     d="m 238.93155,3.298828 c -4.54972,0 -8.80286,0.817875 -12.76172,2.453125 -3.89975,1.58073 -7.35568,3.7886271 -10.36914,6.623047 -3.01344,2.77992 -5.3763,5.994434 -7.08984,9.646484 -1.65443,3.65204 -2.48242,7.523218 -2.48242,11.611328 0,4.251629 0.82799,8.230949 2.48242,11.9375 1.71354,3.652044 4.0764,6.841002 7.08984,9.566407 3.01346,2.725405 6.46941,4.878249 10.36914,6.458984 3.95886,1.526227 8.212,2.289062 12.76172,2.289062 4.49062,0 8.71698,-0.762835 12.67578,-2.289062 4.01796,-1.580735 7.53344,-3.761102 10.54688,-6.541016 3.07255,-2.779913 5.46616,-5.996394 7.17969,-9.648437 1.71353,-3.652044 2.56836,-7.576317 2.56836,-11.773438 0,-4.08811 -0.85483,-7.959288 -2.56836,-11.611328 -1.71353,-3.65205 -4.10714,-6.866564 -7.17969,-9.646484 -3.01344,-2.8344199 -6.52895,-5.042317 -10.54688,-6.623047 -3.95884,-1.63525 -8.18516,-2.453125 -12.67578,-2.453125 z"
     style="font-style:normal;font-variant:normal;font-weight:normal;font-stretch:normal;font-size:14.59449482px;line-height:1.25;font-family:'Reem Kufi';-inkscape-font-specification:'Reem Kufi, Normal';font-variant-ligatures:normal;font-variant-caps:normal;font-variant-numeric:normal;font-feature-settings:normal;text-align:start;letter-spacing:2.10296655px;word-spacing:0px;writing-mode:lr-tb;text-anchor:start;fill:#ff1800;fill-opacity:1;stroke:#ff1800;stroke-width:2.99999976;stroke-linecap:square;stroke-linejoin:round;stroke-miterlimit:4;stroke-dasharray:none;stroke-opacity:1" />
  <path
     id="path851"
     d="M 82.716713,3.9531249 V 63.230469 H 91.93351 V 41.972656 h 9.48437 c 3.95885,0 7.29566,-0.544603 10.01367,-1.634766 2.7771,-1.14467 4.99399,-2.644773 6.64844,-4.498047 1.71353,-1.907789 2.95453,-4.005581 3.72266,-6.294921 0.76813,-2.28935 1.15234,-4.607322 1.15234,-6.951172 0,-5.88687 -2.00941,-10.463886 -6.02734,-13.7343751 -4.01794,-3.2704902 -9.57163,-4.90625 -16.66211,-4.90625 z"
     style="font-style:normal;font-variant:normal;font-weight:normal;font-stretch:normal;font-size:14.59449482px;line-height:1.25;font-family:'Reem Kufi';-inkscape-font-specification:'Reem Kufi, Normal';font-variant-ligatures:normal;font-variant-caps:normal;font-variant-numeric:normal;font-feature-settings:normal;text-align:start;letter-spacing:2.10296655px;word-spacing:0px;writing-mode:lr-tb;text-anchor:start;fill:#ff1800;fill-opacity:1;stroke:#ff1800;stroke-width:2.99999976;stroke-linecap:square;stroke-linejoin:round;stroke-miterlimit:4;stroke-dasharray:none;stroke-opacity:1" />
  <path
     id="path849"
     d="m 143.93351,3.9531249 v 8.2578121 h 16.48437 v 51.019532 h 9.30664 V 12.210937 h 17.01563 V 3.9531249 Z"
     style="font-style:normal;font-variant:normal;font-weight:normal;font-stretch:normal;font-size:14.59449482px;line-height:1.25;font-family:'Reem Kufi';-inkscape-font-specification:'Reem Kufi, Normal';font-variant-ligatures:normal;font-variant-caps:normal;font-variant-numeric:normal;font-feature-settings:normal;text-align:start;letter-spacing:2.10296655px;word-spacing:0px;writing-mode:lr-tb;text-anchor:start;fill:#ff1800;fill-opacity:1;stroke:#ff1800;stroke-width:2.99999976;stroke-linecap:square;stroke-linejoin:round;stroke-miterlimit:4;stroke-dasharray:none;stroke-opacity:1" />
  <path
     id="path847"
     d="M 298.63468,3.9531249 V 63.230469 h 9.2168 V 41.972656 h 9.48437 c 3.95884,0 7.29761,-0.544603 10.01563,-1.634766 2.7771,-1.14467 4.99204,-2.644773 6.64648,-4.498047 1.71354,-1.907789 2.95452,-4.005581 3.72266,-6.294921 0.76814,-2.28935 1.15234,-4.607322 1.15234,-6.951172 0,-5.88687 -2.0094,-10.463886 -6.02734,-13.7343751 -4.01793,-3.2704902 -9.57163,-4.90625 -16.66211,-4.90625 z"
     style="font-style:normal;font-variant:normal;font-weight:normal;font-stretch:normal;font-size:14.59449482px;line-height:1.25;font-family:'Reem Kufi';-inkscape-font-specification:'Reem Kufi, Normal';font-variant-ligatures:normal;font-variant-caps:normal;font-variant-numeric:normal;font-feature-settings:normal;text-align:start;letter-spacing:2.10296655px;word-spacing:0px;writing-mode:lr-tb;text-anchor:start;fill:#ff1800;fill-opacity:1;stroke:#ff1800;stroke-width:2.99999976;stroke-linecap:square;stroke-linejoin:round;stroke-miterlimit:4;stroke-dasharray:none;stroke-opacity:1" />
  <path
     id="path845"
     d="m 239.0214,11.55664 c 4.31338,0 8.21308,0.98107 11.69922,2.94336 3.54523,1.9623 6.35185,4.634162 8.41992,8.013672 2.12714,3.32499 3.1914,7.03103 3.1914,11.11914 0,4.088105 -1.03351,7.794146 -3.10156,11.119141 -2.06806,3.324995 -4.84588,5.969349 -8.33203,7.93164 -3.48614,1.962292 -7.38585,2.94336 -11.69922,2.94336 -4.37246,0 -8.33366,-0.981066 -11.8789,-2.94336 -3.54523,-1.962293 -6.34992,-4.606645 -8.41797,-7.93164 -2.06806,-3.324995 -3.10157,-7.003512 -3.10157,-11.03711 0,-4.08811 1.0047,-7.796093 3.01368,-11.121093 2.06805,-3.3795 4.84588,-6.049429 8.33203,-8.011719 3.54524,-2.01681 7.50255,-3.025391 11.875,-3.025391 z"
     style="font-style:normal;font-variant:normal;font-weight:normal;font-stretch:normal;font-size:14.59449482px;line-height:1.25;font-family:'Reem Kufi';-inkscape-font-specification:'Reem Kufi, Normal';font-variant-ligatures:normal;font-variant-caps:normal;font-variant-numeric:normal;font-feature-settings:normal;text-align:start;letter-spacing:2.10296655px;word-spacing:0px;writing-mode:lr-tb;text-anchor:start;fill:#ff1800;fill-opacity:1;stroke:#ff1800;stroke-width:2.99999976;stroke-linecap:square;stroke-linejoin:round;stroke-miterlimit:4;stroke-dasharray:none;stroke-opacity:1" />
  <path
     id="path843"
     d="m 91.93351,12.210937 h 9.83789 c 3.07252,0 5.46614,0.572127 7.17969,1.716797 1.77262,1.14467 3.0136,2.534682 3.72265,4.169922 0.70904,1.63524 1.0625,3.215957 1.0625,4.742187 0,0.981139 -0.20552,2.097873 -0.61914,3.351563 -0.35451,1.19918 -1.00381,2.370945 -1.94922,3.515625 -0.8863,1.14467 -2.15804,2.100161 -3.8125,2.863281 -1.59535,0.7086 -3.60477,1.0625 -6.02734,1.0625 h -9.39453 z"
     style="font-style:normal;font-variant:normal;font-weight:normal;font-stretch:normal;font-size:14.59449482px;line-height:1.25;font-family:'Reem Kufi';-inkscape-font-specification:'Reem Kufi, Normal';font-variant-ligatures:normal;font-variant-caps:normal;font-variant-numeric:normal;font-feature-settings:normal;text-align:start;letter-spacing:2.10296655px;word-spacing:0px;writing-mode:lr-tb;text-anchor:start;fill:#ff1800;fill-opacity:1;stroke:#ff1800;stroke-width:2.99999976;stroke-linecap:square;stroke-linejoin:round;stroke-miterlimit:4;stroke-dasharray:none;stroke-opacity:1" />
  <path
     id="flowRoot4526"
     d="m 307.85148,12.210937 h 9.83789 c 3.07254,0 5.46615,0.572127 7.17968,1.716797 1.77263,1.14467 3.01361,2.534682 3.72266,4.169922 0.70903,1.63524 1.06445,3.215957 1.06445,4.742187 0,0.981139 -0.20942,2.097873 -0.62304,3.351563 -0.35451,1.19918 -1.00383,2.370945 -1.94922,3.515625 -0.88631,1.14467 -2.15611,2.100161 -3.81055,2.863281 -1.59536,0.7086 -3.60281,1.0625 -6.02539,1.0625 h -9.39648 z"
     style="font-style:normal;font-variant:normal;font-weight:normal;font-stretch:normal;font-size:14.59449482px;line-height:1.25;font-family:'Reem Kufi';-inkscape-font-specification:'Reem Kufi, Normal';font-variant-ligatures:normal;font-variant-caps:normal;font-variant-numeric:normal;font-feature-settings:normal;text-align:start;letter-spacing:2.10296655px;word-spacing:0px;writing-mode:lr-tb;text-anchor:start;fill:#ff1800;fill-opacity:1;stroke:#ff1800;stroke-width:2.99999976;stroke-linecap:square;stroke-linejoin:round;stroke-miterlimit:4;stroke-dasharray:none;stroke-opacity:1" />
  <flowRoot
     transform="translate(-0.03328688,-0.63671892)"
     style="font-style:normal;font-variant:normal;font-weight:300;font-stretch:normal;font-size:14.59466648px;line-height:1.25;font-family:'Segoe UI';-inkscape-font-specification:'Segoe UI, Light';font-variant-ligatures:normal;font-variant-caps:normal;font-variant-numeric:normal;font-feature-settings:normal;text-align:start;letter-spacing:0px;word-spacing:0px;writing-mode:lr-tb;text-anchor:start;fill:#000000;fill-opacity:1;stroke:none"
     id="flowRoot4542"
     xml:space="preserve"><flowRegion
       id="flowRegion4544"><rect
         y="-118.08593"
         x="83.331543"
         height="31.199963"
         width="28.040472"
         id="rect4546" /></flowRegion><flowPara
       id="flowPara4548" /></flowRoot>  <flowRoot
     transform="translate(-0.03328688,-0.63671892)"
     style="font-style:normal;font-variant:normal;font-weight:300;font-stretch:normal;font-size:14.59466648px;line-height:1.25;font-family:'Segoe UI';-inkscape-font-specification:'Segoe UI, Light';font-variant-ligatures:normal;font-variant-caps:normal;font-variant-numeric:normal;font-feature-settings:normal;text-align:start;letter-spacing:0px;word-spacing:0px;writing-mode:lr-tb;text-anchor:start;fill:#000000;fill-opacity:1;stroke:none"
     id="flowRoot4607"
     xml:space="preserve"><flowRegion
       id="flowRegion4609"><rect
         y="69.20874"
         x="85"
         height="41"
         width="170.5"
         id="rect4611" /></flowRegion><flowPara
       id="flowPara4613" /></flowRoot>  <g
     id="flowRoot4615"
     style="font-style:normal;font-variant:normal;font-weight:300;font-stretch:normal;font-size:14.59466648px;line-height:1.25;font-family:'Segoe UI';-inkscape-font-specification:'Segoe UI, Light';font-variant-ligatures:normal;font-variant-caps:normal;font-variant-numeric:normal;font-feature-settings:normal;text-align:start;letter-spacing:0px;word-spacing:0px;writing-mode:lr-tb;text-anchor:start;fill:#ffffff;fill-opacity:1;stroke:none;stroke-width:0.68256909"
     transform="matrix(1.6614218,0,0,1.2918942,8.7421859,-11.223946)"
     aria-label="SERWIS KOMPUTEROWY">
    <path
       id="path4623"
       style="font-style:normal;font-variant:normal;font-weight:600;font-stretch:normal;font-size:14.59460545px;font-family:'Segoe UI';-inkscape-font-specification:'Segoe UI, Semi-Bold';font-variant-ligatures:normal;font-variant-caps:normal;font-variant-numeric:normal;font-feature-settings:normal;text-align:start;letter-spacing:2.37906957px;writing-mode:lr-tb;text-anchor:start;fill:#ffffff;fill-opacity:1;stroke-width:0.68256909"
       d="m -4.7089838,71.948997 v -1.745936 q 0.235167,0.213788 0.5558492,0.384818 0.3278086,0.171031 0.6912484,0.292177 0.3634399,0.114021 0.7268798,0.178157 0.3634399,0.06414 0.6698696,0.06414 1.06894082,0 1.58915869,-0.356314 0.52734415,-0.356314 0.52734415,-1.033309 0,-0.36344 -0.17815681,-0.627112 -0.17103053,-0.270799 -0.48458651,-0.491713 -0.31355597,-0.220915 -0.74113232,-0.42045 -0.42045,-0.206662 -0.9050366,-0.427577 -0.5202178,-0.277924 -0.969173,-0.562975 -0.4489551,-0.285051 -0.7838899,-0.627112 -0.3278085,-0.349187 -0.5202179,-0.78389 -0.1852831,-0.434703 -0.1852831,-1.019057 0,-0.719753 0.3206823,-1.247097 0.3278085,-0.534471 0.8551527,-0.876532 0.5344704,-0.349187 1.2114662,-0.513092 0.6769959,-0.17103 1.38249683,-0.17103 1.60341124,0 2.33741727,0.36344 v 1.674674 Q 0.5217,63.376092 -0.84654426,63.376092 q -0.37769244,0 -0.75538484,0.07126 -0.3705662,0.07126 -0.6698696,0.235166 -0.2921772,0.163905 -0.4774602,0.420451 -0.1852831,0.256545 -0.1852831,0.619985 0,0.342061 0.1425254,0.591481 0.1425255,0.249419 0.4133238,0.456081 0.2779246,0.206662 0.6698696,0.406198 0.3990712,0.192409 0.91928912,0.42045 0.53447041,0.277924 1.00480438,0.584354 0.47746023,0.30643 0.8337738,0.676996 0.3634399,0.370566 0.5701018,0.826648 0.2137882,0.448955 0.2137882,1.026183 0,0.776763 -0.313556,1.311234 -0.313556,0.53447 -0.84802638,0.869405 -0.52734415,0.334935 -1.21859255,0.484587 -0.69124837,0.149651 -1.46088577,0.149651 -0.2565458,0 -0.6342383,-0.04276 -0.3705661,-0.03563 -0.7625111,-0.114021 -0.3919449,-0.07126 -0.7411323,-0.178157 -0.3491873,-0.106894 -0.5629755,-0.242293 z" />
    <path
       id="path4625"
       style="font-style:normal;font-variant:normal;font-weight:600;font-stretch:normal;font-size:14.59460545px;font-family:'Segoe UI';-inkscape-font-specification:'Segoe UI, Semi-Bold';font-variant-ligatures:normal;font-variant-caps:normal;font-variant-numeric:normal;font-feature-settings:normal;text-align:start;letter-spacing:2.37906957px;writing-mode:lr-tb;text-anchor:start;fill:#ffffff;fill-opacity:1;stroke-width:0.68256909"
       d="M 11.829989,72.355195 H 6.0933395 V 62.13612 h 5.5086085 v 1.439507 H 7.7893922 v 2.893267 h 3.5132518 v 1.432381 H 7.7893922 v 3.021539 h 4.0405968 z" />
    <path
       id="path4627"
       style="font-style:normal;font-variant:normal;font-weight:600;font-stretch:normal;font-size:14.59460545px;font-family:'Segoe UI';-inkscape-font-specification:'Segoe UI, Semi-Bold';font-variant-ligatures:normal;font-variant-caps:normal;font-variant-numeric:normal;font-feature-settings:normal;text-align:start;letter-spacing:2.37906957px;writing-mode:lr-tb;text-anchor:start;fill:#ffffff;fill-opacity:1;stroke-width:0.68256909"
       d="m 23.922168,72.355195 h -1.981104 l -1.631916,-2.736489 q -0.220915,-0.377692 -0.434703,-0.641364 -0.206662,-0.270799 -0.427576,-0.441829 -0.213788,-0.171031 -0.470334,-0.24942 -0.256546,-0.07839 -0.577228,-0.07839 h -0.684122 v 4.147491 H 16.026258 V 62.13612 h 3.3636 q 0.719754,0 1.325487,0.171031 0.605733,0.17103 1.054688,0.520218 0.448956,0.342061 0.698375,0.862279 0.256546,0.513091 0.256546,1.20434 0,0.541596 -0.163904,0.997678 -0.156778,0.448955 -0.456082,0.805269 -0.292177,0.349187 -0.712627,0.598606 -0.413324,0.24942 -0.933542,0.384819 v 0.02851 q 0.277925,0.156778 0.484587,0.349188 0.206662,0.185283 0.391945,0.384818 0.185283,0.199536 0.36344,0.456082 0.185283,0.249419 0.406197,0.584354 z m -6.206983,-8.843704 v 3.320843 h 1.411001 q 0.391945,0 0.719754,-0.121147 0.334935,-0.121146 0.577228,-0.349187 0.242293,-0.228041 0.377692,-0.555849 0.1354,-0.327809 0.1354,-0.734006 0,-0.734006 -0.463208,-1.14733 -0.463208,-0.413324 -1.332613,-0.413324 z" />
    <path
       id="path4629"
       style="font-style:normal;font-variant:normal;font-weight:600;font-stretch:normal;font-size:14.59460545px;font-family:'Segoe UI';-inkscape-font-specification:'Segoe UI, Semi-Bold';font-variant-ligatures:normal;font-variant-caps:normal;font-variant-numeric:normal;font-feature-settings:normal;text-align:start;letter-spacing:2.37906957px;writing-mode:lr-tb;text-anchor:start;fill:#ffffff;fill-opacity:1;stroke-width:0.68256909"
       d="m 40.176089,62.13612 -2.800625,10.219075 h -1.916967 l -1.945472,-7.147651 q -0.121147,-0.456082 -0.149652,-0.997678 h -0.02851 q -0.03563,0.505965 -0.171031,0.983425 l -1.952598,7.161904 h -1.95972 L 26.393879,62.13612 h 1.859957 l 1.85283,7.482586 q 0.114021,0.470334 0.142526,0.983426 h 0.03563 q 0.0285,-0.36344 0.199536,-0.983426 l 2.095124,-7.482586 h 1.745937 l 1.938346,7.539596 q 0.09977,0.384819 0.149651,0.912163 h 0.0285 q 0.02138,-0.356313 0.163905,-0.940668 L 38.42302,62.13612 Z" />
    <path
       id="path4631"
       style="font-style:normal;font-variant:normal;font-weight:600;font-stretch:normal;font-size:14.59460545px;font-family:'Segoe UI';-inkscape-font-specification:'Segoe UI, Semi-Bold';font-variant-ligatures:normal;font-variant-caps:normal;font-variant-numeric:normal;font-feature-settings:normal;text-align:start;letter-spacing:2.37906957px;writing-mode:lr-tb;text-anchor:start;fill:#ffffff;fill-opacity:1;stroke-width:0.68256909"
       d="M 45.726349,72.355195 H 43.980413 V 62.13612 h 1.745936 z" />
    <path
       id="path4633"
       style="font-style:normal;font-variant:normal;font-weight:600;font-stretch:normal;font-size:14.59460545px;font-family:'Segoe UI';-inkscape-font-specification:'Segoe UI, Semi-Bold';font-variant-ligatures:normal;font-variant-caps:normal;font-variant-numeric:normal;font-feature-settings:normal;text-align:start;letter-spacing:2.37906957px;writing-mode:lr-tb;text-anchor:start;fill:#ffffff;fill-opacity:1;stroke-width:0.68256909"
       d="m 50.143532,71.948997 v -1.745936 q 0.235167,0.213788 0.55585,0.384818 0.327808,0.171031 0.691248,0.292177 0.36344,0.114021 0.72688,0.178157 0.36344,0.06414 0.669869,0.06414 1.068941,0 1.589159,-0.356314 0.527344,-0.356314 0.527344,-1.033309 0,-0.36344 -0.178157,-0.627112 -0.17103,-0.270799 -0.484586,-0.491713 -0.313556,-0.220915 -0.741132,-0.42045 -0.42045,-0.206662 -0.905037,-0.427577 -0.520218,-0.277924 -0.969173,-0.562975 -0.448955,-0.285051 -0.78389,-0.627112 -0.327808,-0.349187 -0.520218,-0.78389 -0.185283,-0.434703 -0.185283,-1.019057 0,-0.719753 0.320682,-1.247097 0.327809,-0.534471 0.855153,-0.876532 0.53447,-0.349187 1.211466,-0.513092 0.676996,-0.17103 1.382497,-0.17103 1.603411,0 2.337417,0.36344 v 1.674674 q -0.869405,-0.627112 -2.237649,-0.627112 -0.377693,0 -0.755385,0.07126 -0.370566,0.07126 -0.66987,0.235166 -0.292177,0.163905 -0.47746,0.420451 -0.185283,0.256545 -0.185283,0.619985 0,0.342061 0.142526,0.591481 0.142525,0.249419 0.413323,0.456081 0.277925,0.206662 0.66987,0.406198 0.399071,0.192409 0.919289,0.42045 0.534471,0.277924 1.004804,0.584354 0.477461,0.30643 0.833774,0.676996 0.36344,0.370566 0.570102,0.826648 0.213788,0.448955 0.213788,1.026183 0,0.776763 -0.313556,1.311234 -0.313556,0.53447 -0.848026,0.869405 -0.527344,0.334935 -1.218593,0.484587 -0.691248,0.149651 -1.460885,0.149651 -0.256546,0 -0.634239,-0.04276 -0.370566,-0.03563 -0.762511,-0.114021 -0.391945,-0.07126 -0.741132,-0.178157 -0.349187,-0.106894 -0.562976,-0.242293 z" />
    <path
       id="path4635"
       style="font-style:normal;font-variant:normal;font-weight:600;font-stretch:normal;font-size:14.59460545px;font-family:'Segoe UI';-inkscape-font-specification:'Segoe UI, Semi-Bold';font-variant-ligatures:normal;font-variant-caps:normal;font-variant-numeric:normal;font-feature-settings:normal;text-align:start;letter-spacing:2.37906957px;writing-mode:lr-tb;text-anchor:start;fill:#ffffff;fill-opacity:1;stroke-width:0.68256909"
       d="M 75.07615,72.355195 H 72.867005 L 69.310995,67.68036 Q 69.11146,67.416688 69.068702,67.324047 h -0.0285 v 5.031148 H 67.344144 V 62.13612 h 1.696053 v 4.803108 h 0.0285 q 0.08552,-0.156778 0.242293,-0.349187 l 3.427737,-4.453921 h 2.030988 l -4.012091,4.902876 z" />
    <path
       id="path4637"
       style="font-style:normal;font-variant:normal;font-weight:600;font-stretch:normal;font-size:14.59460545px;font-family:'Segoe UI';-inkscape-font-specification:'Segoe UI, Semi-Bold';font-variant-ligatures:normal;font-variant-caps:normal;font-variant-numeric:normal;font-feature-settings:normal;text-align:start;letter-spacing:2.37906957px;writing-mode:lr-tb;text-anchor:start;fill:#ffffff;fill-opacity:1;stroke-width:0.68256909"
       d="m 82.315338,72.526225 q -2.209144,0 -3.541757,-1.43238 -1.325486,-1.432381 -1.325486,-3.727041 0,-2.46569 1.353991,-3.933702 1.353992,-1.468012 3.677157,-1.468012 2.152134,0 3.463368,1.425254 1.31836,1.425255 1.31836,3.727041 0,2.501321 -1.346865,3.955081 -1.346865,1.453759 -3.598768,1.453759 z m 0.07839,-9.071744 q -1.403875,0 -2.287533,1.047562 -0.876531,1.047562 -0.876531,2.757867 0,1.703179 0.855152,2.743615 0.855153,1.040436 2.23765,1.040436 1.468012,0 2.316038,-0.990552 0.848027,-0.990552 0.848027,-2.77212 0,-1.831452 -0.826648,-2.82913 -0.819521,-0.997678 -2.266155,-0.997678 z" />
    <path
       id="path4639"
       style="font-style:normal;font-variant:normal;font-weight:600;font-stretch:normal;font-size:14.59460545px;font-family:'Segoe UI';-inkscape-font-specification:'Segoe UI, Semi-Bold';font-variant-ligatures:normal;font-variant-caps:normal;font-variant-numeric:normal;font-feature-settings:normal;text-align:start;letter-spacing:2.37906957px;writing-mode:lr-tb;text-anchor:start;fill:#ffffff;fill-opacity:1;stroke-width:0.68256909"
       d="m 102.48871,72.355195 h -1.6818 v -6.613181 q 0,-0.812395 0.0998,-1.98823 h -0.0285 q -0.15678,0.66987 -0.27792,0.962047 l -3.050048,7.639364 H 96.381493 L 93.324322,64.772841 Q 93.19605,64.437906 93.053524,63.753784 h -0.0285 q 0.05701,0.61286 0.05701,2.002483 v 6.598928 h -1.56778 V 62.13612 h 2.387302 l 2.686604,6.80559 q 0.30643,0.78389 0.399071,1.168709 h 0.03563 q 0.263672,-0.805269 0.427576,-1.197214 l 2.736483,-6.777085 h 2.30179 z" />
    <path
       id="path4641"
       style="font-style:normal;font-variant:normal;font-weight:600;font-stretch:normal;font-size:14.59460545px;font-family:'Segoe UI';-inkscape-font-specification:'Segoe UI, Semi-Bold';font-variant-ligatures:normal;font-variant-caps:normal;font-variant-numeric:normal;font-feature-settings:normal;text-align:start;letter-spacing:2.37906957px;writing-mode:lr-tb;text-anchor:start;fill:#ffffff;fill-opacity:1;stroke-width:0.68256909"
       d="m 109.06515,68.649533 v 3.705662 h -1.68892 V 62.13612 h 3.09992 q 1.76019,0 2.72937,0.819522 0.96917,0.819521 0.96917,2.308912 0,1.489391 -1.01193,2.437185 -1.01193,0.947794 -2.73649,0.947794 z m 0,-5.116663 v 3.734166 h 1.09745 q 1.09032,0 1.66042,-0.505965 0.5701,-0.505965 0.5701,-1.425254 0,-1.802947 -2.09512,-1.802947 z" />
    <path
       id="path4643"
       style="font-style:normal;font-variant:normal;font-weight:600;font-stretch:normal;font-size:14.59460545px;font-family:'Segoe UI';-inkscape-font-specification:'Segoe UI, Semi-Bold';font-variant-ligatures:normal;font-variant-caps:normal;font-variant-numeric:normal;font-feature-settings:normal;text-align:start;letter-spacing:2.37906957px;writing-mode:lr-tb;text-anchor:start;fill:#ffffff;fill-opacity:1;stroke-width:0.68256909"
       d="m 126.1386,68.221957 q 0,4.304268 -4.07623,4.304268 -3.9052,0 -3.9052,-4.140364 V 62.13612 h 1.69605 v 5.900554 q 0,3.007287 2.33742,3.007287 2.2519,0 2.2519,-2.900393 V 62.13612 h 1.69606 z" />
    <path
       id="path4645"
       style="font-style:normal;font-variant:normal;font-weight:600;font-stretch:normal;font-size:14.59460545px;font-family:'Segoe UI';-inkscape-font-specification:'Segoe UI, Semi-Bold';font-variant-ligatures:normal;font-variant-caps:normal;font-variant-numeric:normal;font-feature-settings:normal;text-align:start;letter-spacing:2.37906957px;writing-mode:lr-tb;text-anchor:start;fill:#ffffff;fill-opacity:1;stroke-width:0.68256909"
       d="m 137.47539,63.575627 h -2.93603 v 8.779568 h -1.69605 v -8.779568 h -2.9289 V 62.13612 h 7.56098 z" />
    <path
       id="path4647"
       style="font-style:normal;font-variant:normal;font-weight:600;font-stretch:normal;font-size:14.59460545px;font-family:'Segoe UI';-inkscape-font-specification:'Segoe UI, Semi-Bold';font-variant-ligatures:normal;font-variant-caps:normal;font-variant-numeric:normal;font-feature-settings:normal;text-align:start;letter-spacing:2.37906957px;writing-mode:lr-tb;text-anchor:start;fill:#ffffff;fill-opacity:1;stroke-width:0.68256909"
       d="m 147.10188,72.355195 h -5.73665 V 62.13612 h 5.50861 v 1.439507 h -3.81256 v 2.893267 h 3.51326 v 1.432381 h -3.51326 v 3.021539 h 4.0406 z" />
    <path
       id="path4649"
       style="font-style:normal;font-variant:normal;font-weight:600;font-stretch:normal;font-size:14.59460545px;font-family:'Segoe UI';-inkscape-font-specification:'Segoe UI, Semi-Bold';font-variant-ligatures:normal;font-variant-caps:normal;font-variant-numeric:normal;font-feature-settings:normal;text-align:start;letter-spacing:2.37906957px;writing-mode:lr-tb;text-anchor:start;fill:#ffffff;fill-opacity:1;stroke-width:0.68256909"
       d="m 159.19405,72.355195 h -1.9811 l -1.63192,-2.736489 q -0.22092,-0.377692 -0.4347,-0.641364 -0.20667,-0.270799 -0.42758,-0.441829 -0.21379,-0.171031 -0.47033,-0.24942 -0.25655,-0.07839 -0.57723,-0.07839 h -0.68412 v 4.147491 h -1.68893 V 62.13612 h 3.3636 q 0.71975,0 1.32549,0.171031 0.60573,0.17103 1.05468,0.520218 0.44896,0.342061 0.69838,0.862279 0.25654,0.513091 0.25654,1.20434 0,0.541596 -0.1639,0.997678 -0.15678,0.448955 -0.45608,0.805269 -0.29218,0.349187 -0.71263,0.598606 -0.41332,0.24942 -0.93354,0.384819 v 0.02851 q 0.27793,0.156778 0.48459,0.349188 0.20666,0.185283 0.39194,0.384818 0.18528,0.199536 0.36344,0.456082 0.18528,0.249419 0.4062,0.584354 z m -6.20698,-8.843704 v 3.320843 h 1.411 q 0.39194,0 0.71975,-0.121147 0.33494,-0.121146 0.57723,-0.349187 0.24229,-0.228041 0.37769,-0.555849 0.1354,-0.327809 0.1354,-0.734006 0,-0.734006 -0.46321,-1.14733 -0.4632,-0.413324 -1.33261,-0.413324 z" />
    <path
       id="path4651"
       style="font-style:normal;font-variant:normal;font-weight:600;font-stretch:normal;font-size:14.59460545px;font-family:'Segoe UI';-inkscape-font-specification:'Segoe UI, Semi-Bold';font-variant-ligatures:normal;font-variant-caps:normal;font-variant-numeric:normal;font-feature-settings:normal;text-align:start;letter-spacing:2.37906957px;writing-mode:lr-tb;text-anchor:start;fill:#ffffff;fill-opacity:1;stroke-width:0.68256909"
       d="m 166.83945,72.526225 q -2.20915,0 -3.54176,-1.43238 -1.32549,-1.432381 -1.32549,-3.727041 0,-2.46569 1.354,-3.933702 1.35399,-1.468012 3.67715,-1.468012 2.15214,0 3.46337,1.425254 1.31836,1.425255 1.31836,3.727041 0,2.501321 -1.34687,3.955081 -1.34686,1.453759 -3.59876,1.453759 z m 0.0784,-9.071744 q -1.40388,0 -2.28754,1.047562 -0.87653,1.047562 -0.87653,2.757867 0,1.703179 0.85515,2.743615 0.85516,1.040436 2.23765,1.040436 1.46802,0 2.31604,-0.990552 0.84803,-0.990552 0.84803,-2.77212 0,-1.831452 -0.82665,-2.82913 -0.81952,-0.997678 -2.26615,-0.997678 z" />
    <path
       id="path4653"
       style="font-style:normal;font-variant:normal;font-weight:600;font-stretch:normal;font-size:14.59460545px;font-family:'Segoe UI';-inkscape-font-specification:'Segoe UI, Semi-Bold';font-variant-ligatures:normal;font-variant-caps:normal;font-variant-numeric:normal;font-feature-settings:normal;text-align:start;letter-spacing:2.37906957px;writing-mode:lr-tb;text-anchor:start;fill:#ffffff;fill-opacity:1;stroke-width:0.68256909"
       d="m 188.716,62.13612 -2.80063,10.219075 h -1.91697 l -1.94547,-7.147651 q -0.12114,-0.456082 -0.14965,-0.997678 h -0.0285 q -0.0356,0.505965 -0.17104,0.983425 l -1.95259,7.161904 h -1.95973 L 174.93379,62.13612 h 1.85995 l 1.85283,7.482586 q 0.11402,0.470334 0.14253,0.983426 h 0.0356 q 0.0285,-0.36344 0.19954,-0.983426 l 2.09512,-7.482586 h 1.74594 l 1.93834,7.539596 q 0.0998,0.384819 0.14965,0.912163 h 0.0285 q 0.0214,-0.356313 0.1639,-0.940668 l 1.8172,-7.511091 z" />
    <path
       id="path4655"
       style="font-style:normal;font-variant:normal;font-weight:600;font-stretch:normal;font-size:14.59460545px;font-family:'Segoe UI';-inkscape-font-specification:'Segoe UI, Semi-Bold';font-variant-ligatures:normal;font-variant-caps:normal;font-variant-numeric:normal;font-feature-settings:normal;text-align:start;letter-spacing:2.37906957px;writing-mode:lr-tb;text-anchor:start;fill:#ffffff;fill-opacity:1;stroke-width:0.68256909"
       d="m 199.64659,62.13612 -3.34934,6.506287 v 3.712788 h -1.69606 v -3.677157 l -3.26383,-6.541918 h 1.93122 l 2.00961,4.382658 q 0.0356,0.07839 0.21379,0.59148 h 0.0214 q 0.0641,-0.22804 0.23516,-0.59148 l 2.10225,-4.382658 z" />
  </g>
</svg>
